<svg xmlns="http://www.w3.org/2000/svg" width="1280" height="620" viewBox="0 0 1280 620" role="img"><rect width="100%" height="100%" fill="#ffffff"/><text x="50" y="48" font-family="Inter, Arial, sans-serif" font-size="28" font-weight="700" text-anchor="start" fill="#172033">Effect of appending the K-means cluster label</text><text x="50" y="78" font-family="Inter, Arial, sans-serif" font-size="17" font-weight="400" text-anchor="start" fill="#5c667a">Change from PCA only to PCA + cluster, in percentage points</text><line x1="210.0" y1="130" x2="210.0" y2="535" stroke="#e4e8ef" stroke-width="1"/><text x="210.0" y="565" font-family="Inter, Arial, sans-serif" font-size="15" font-weight="400" text-anchor="middle" fill="#5c667a">-2</text><line x1="333.75" y1="130" x2="333.75" y2="535" stroke="#7f899c" stroke-width="2"/><text x="333.75" y="565" font-family="Inter, Arial, sans-serif" font-size="15" font-weight="400" text-anchor="middle" fill="#5c667a">+0</text><line x1="457.5" y1="130" x2="457.5" y2="535" stroke="#e4e8ef" stroke-width="1"/><text x="457.5" y="565" font-family="Inter, Arial, sans-serif" font-size="15" font-weight="400" text-anchor="middle" fill="#5c667a">+2</text><line x1="581.25" y1="130" x2="581.25" y2="535" stroke="#e4e8ef" stroke-width="1"/><text x="581.25" y="565" font-family="Inter, Arial, sans-serif" font-size="15" font-weight="400" text-anchor="middle" fill="#5c667a">+4</text><line x1="705.0" y1="130" x2="705.0" y2="535" stroke="#e4e8ef" stroke-width="1"/><text x="705.0" y="565" font-family="Inter, Arial, sans-serif" font-size="15" font-weight="400" text-anchor="middle" fill="#5c667a">+6</text><line x1="828.75" y1="130" x2="828.75" y2="535" stroke="#e4e8ef" stroke-width="1"/><text x="828.75" y="565" font-family="Inter, Arial, sans-serif" font-size="15" font-weight="400" text-anchor="middle" fill="#5c667a">+8</text><line x1="952.5" y1="130" x2="952.5" y2="535" stroke="#e4e8ef" stroke-width="1"/><text x="952.5" y="565" font-family="Inter, Arial, sans-serif" font-size="15" font-weight="400" text-anchor="middle" fill="#5c667a">+10</text><line x1="1076.25" y1="130" x2="1076.25" y2="535" stroke="#e4e8ef" stroke-width="1"/><text x="1076.25" y="565" font-family="Inter, Arial, sans-serif" font-size="15" font-weight="400" text-anchor="middle" fill="#5c667a">+12</text><line x1="1200.0" y1="130" x2="1200.0" y2="535" stroke="#e4e8ef" stroke-width="1"/><text x="1200.0" y="565" font-family="Inter, Arial, sans-serif" font-size="15" font-weight="400" text-anchor="middle" fill="#5c667a">+14</text><text x="186" y="198" font-family="Inter, Arial, sans-serif" font-size="17" font-weight="600" text-anchor="end" fill="#172033">KNN</text><rect x="331.1698125" y="170" width="2.5801875000000223" height="24" rx="3" fill="#276fbf"/><text x="323.1698125" y="188" font-family="Inter, Arial, sans-serif" font-size="14" font-weight="600" text-anchor="end" fill="#276fbf">-0.04</text><rect x="329.0846249999998" y="200" width="4.6653750000002105" height="24" rx="3" fill="#d49a00"/><text x="321.0846249999998" y="218" font-family="Inter, Arial, sans-serif" font-size="14" font-weight="600" text-anchor="end" fill="#d49a00">-0.08</text><rect x="329.4496875" y="230" width="4.300312500000018" height="24" rx="3" fill="#d96c30"/><text x="321.4496875" y="248" font-family="Inter, Arial, sans-serif" font-size="14" font-weight="600" text-anchor="end" fill="#d96c30">-0.07</text><text x="186" y="323" font-family="Inter, Arial, sans-serif" font-size="17" font-weight="600" text-anchor="end" fill="#172033">Naive Bayes</text><rect x="333.75" y="295" width="35.55337500000019" height="24" rx="3" fill="#276fbf"/><text x="377.3033750000002" y="313" font-family="Inter, Arial, sans-serif" font-size="14" font-weight="600" text-anchor="start" fill="#276fbf">+0.57</text><rect x="333.75" y="325" width="773.9201249999994" height="24" rx="3" fill="#d49a00"/><text x="1115.6701249999994" y="343" font-family="Inter, Arial, sans-serif" font-size="14" font-weight="600" text-anchor="start" fill="#d49a00">+12.51</text><rect x="333.75" y="355" width="398.5430624999999" height="24" rx="3" fill="#d96c30"/><text x="740.2930624999999" y="373" font-family="Inter, Arial, sans-serif" font-size="14" font-weight="600" text-anchor="start" fill="#d96c30">+6.44</text><text x="186" y="448" font-family="Inter, Arial, sans-serif" font-size="17" font-weight="600" text-anchor="end" fill="#172033">Decision tree</text><rect x="313.2570000000001" y="420" width="20.49299999999988" height="24" rx="3" fill="#276fbf"/><text x="305.2570000000001" y="438" font-family="Inter, Arial, sans-serif" font-size="14" font-weight="600" text-anchor="end" fill="#276fbf">-0.33</text><rect x="301.50075000000004" y="450" width="32.24924999999996" height="24" rx="3" fill="#d49a00"/><text x="293.50075000000004" y="468" font-family="Inter, Arial, sans-serif" font-size="14" font-weight="600" text-anchor="end" fill="#d49a00">-0.52</text><rect x="250.42912500000014" y="480" width="83.32087499999986" height="24" rx="3" fill="#d96c30"/><text x="242.42912500000014" y="498" font-family="Inter, Arial, sans-serif" font-size="14" font-weight="600" text-anchor="end" fill="#d96c30">-1.35</text><rect x="390" y="590" width="16" height="16" rx="2" fill="#276fbf"/><text x="416" y="604" font-family="Inter, Arial, sans-serif" font-size="15" font-weight="400" text-anchor="start" fill="#39445a">ROC–AUC</text><rect x="570" y="590" width="16" height="16" rx="2" fill="#d49a00"/><text x="596" y="604" font-family="Inter, Arial, sans-serif" font-size="15" font-weight="400" text-anchor="start" fill="#39445a">Accuracy</text><rect x="750" y="590" width="16" height="16" rx="2" fill="#d96c30"/><text x="776" y="604" font-family="Inter, Arial, sans-serif" font-size="15" font-weight="400" text-anchor="start" fill="#39445a">F1</text></svg>
