<svg xmlns="http://www.w3.org/2000/svg" width="1280" height="610" viewBox="0 0 1280 610" role="img"><rect width="100%" height="100%" fill="#ffffff"/><text x="50" y="48" font-family="Inter, Arial, sans-serif" font-size="28" font-weight="700" text-anchor="start" fill="#172033">Recorded validation performance</text><text x="50" y="78" font-family="Inter, Arial, sans-serif" font-size="17" font-weight="400" text-anchor="start" fill="#5c667a">ROC–AUC and F1 score from notebook cell 76</text><line x1="360.0" y1="120" x2="360.0" y2="535" stroke="#e4e8ef"/><text x="360.0" y="565" font-family="Inter, Arial, sans-serif" font-size="15" font-weight="400" text-anchor="middle" fill="#5c667a">0.0</text><line x1="528.0" y1="120" x2="528.0" y2="535" stroke="#e4e8ef"/><text x="528.0" y="565" font-family="Inter, Arial, sans-serif" font-size="15" font-weight="400" text-anchor="middle" fill="#5c667a">0.2</text><line x1="696.0" y1="120" x2="696.0" y2="535" stroke="#e4e8ef"/><text x="696.0" y="565" font-family="Inter, Arial, sans-serif" font-size="15" font-weight="400" text-anchor="middle" fill="#5c667a">0.4</text><line x1="864.0" y1="120" x2="864.0" y2="535" stroke="#e4e8ef"/><text x="864.0" y="565" font-family="Inter, Arial, sans-serif" font-size="15" font-weight="400" text-anchor="middle" fill="#5c667a">0.6</text><line x1="1032.0" y1="120" x2="1032.0" y2="535" stroke="#e4e8ef"/><text x="1032.0" y="565" font-family="Inter, Arial, sans-serif" font-size="15" font-weight="400" text-anchor="middle" fill="#5c667a">0.8</text><line x1="1200.0" y1="120" x2="1200.0" y2="535" stroke="#e4e8ef"/><text x="1200.0" y="565" font-family="Inter, Arial, sans-serif" font-size="15" font-weight="400" text-anchor="middle" fill="#5c667a">1.0</text><text x="336" y="167" font-family="Inter, Arial, sans-serif" font-size="17" font-weight="600" text-anchor="end" fill="#172033">KNN (PCA only)</text><line x1="360" y1="151" x2="1056.2600400000001" y2="151" stroke="#276fbf" stroke-width="5" opacity="0.28"/><circle cx="1056.2600400000001" cy="151" r="7" fill="#276fbf"/><text x="1068.2600400000001" y="156" font-family="Inter, Arial, sans-serif" font-size="14" font-weight="600" text-anchor="start" fill="#276fbf">0.829</text><line x1="360" y1="173" x2="974.2147199999999" y2="173" stroke="#d49a00" stroke-width="5" opacity="0.28"/><circle cx="974.2147199999999" cy="173" r="7" fill="#d49a00"/><text x="986.2147199999999" y="178" font-family="Inter, Arial, sans-serif" font-size="14" font-weight="600" text-anchor="start" fill="#d49a00">0.731</text><text x="336" y="247" font-family="Inter, Arial, sans-serif" font-size="17" font-weight="600" text-anchor="end" fill="#172033">Naive Bayes (PCA + cluster)</text><line x1="360" y1="231" x2="1022.68608" y2="231" stroke="#276fbf" stroke-width="5" opacity="0.28"/><circle cx="1022.68608" cy="231" r="7" fill="#276fbf"/><text x="1034.68608" y="236" font-family="Inter, Arial, sans-serif" font-size="14" font-weight="600" text-anchor="start" fill="#276fbf">0.789</text><line x1="360" y1="253" x2="970.04244" y2="253" stroke="#d49a00" stroke-width="5" opacity="0.28"/><circle cx="970.04244" cy="253" r="7" fill="#d49a00"/><text x="982.04244" y="258" font-family="Inter, Arial, sans-serif" font-size="14" font-weight="600" text-anchor="start" fill="#d49a00">0.726</text><text x="336" y="327" font-family="Inter, Arial, sans-serif" font-size="17" font-weight="600" text-anchor="end" fill="#172033">Decision tree (PCA only)</text><line x1="360" y1="311" x2="1037.91024" y2="311" stroke="#276fbf" stroke-width="5" opacity="0.28"/><circle cx="1037.91024" cy="311" r="7" fill="#276fbf"/><text x="1049.91024" y="316" font-family="Inter, Arial, sans-serif" font-size="14" font-weight="600" text-anchor="start" fill="#276fbf">0.807</text><line x1="360" y1="333" x2="962.5681199999999" y2="333" stroke="#d49a00" stroke-width="5" opacity="0.28"/><circle cx="962.5681199999999" cy="333" r="7" fill="#d49a00"/><text x="974.5681199999999" y="338" font-family="Inter, Arial, sans-serif" font-size="14" font-weight="600" text-anchor="start" fill="#d49a00">0.717</text><text x="336" y="407" font-family="Inter, Arial, sans-serif" font-size="17" font-weight="600" text-anchor="end" fill="#172033">Soft voting</text><line x1="360" y1="391" x2="1054.1676" y2="391" stroke="#276fbf" stroke-width="5" opacity="0.28"/><circle cx="1054.1676" cy="391" r="7" fill="#276fbf"/><text x="1066.1676" y="396" font-family="Inter, Arial, sans-serif" font-size="14" font-weight="600" text-anchor="start" fill="#276fbf">0.826</text><line x1="360" y1="413" x2="983.8528799999999" y2="413" stroke="#d49a00" stroke-width="5" opacity="0.28"/><circle cx="983.8528799999999" cy="413" r="7" fill="#d49a00"/><text x="995.8528799999999" y="418" font-family="Inter, Arial, sans-serif" font-size="14" font-weight="600" text-anchor="start" fill="#d49a00">0.743</text><text x="336" y="487" font-family="Inter, Arial, sans-serif" font-size="17" font-weight="600" text-anchor="end" fill="#172033">Weighted voting</text><line x1="360" y1="471" x2="1057.65024" y2="471" stroke="#276fbf" stroke-width="5" opacity="0.28"/><circle cx="1057.65024" cy="471" r="7" fill="#276fbf"/><text x="1069.65024" y="476" font-family="Inter, Arial, sans-serif" font-size="14" font-weight="600" text-anchor="start" fill="#276fbf">0.831</text><line x1="360" y1="493" x2="986.9424" y2="493" stroke="#d49a00" stroke-width="5" opacity="0.28"/><circle cx="986.9424" cy="493" r="7" fill="#d49a00"/><text x="998.9424" y="498" font-family="Inter, Arial, sans-serif" font-size="14" font-weight="600" text-anchor="start" fill="#d49a00">0.746</text><circle cx="505" cy="595" r="6" fill="#276fbf"/><text x="520" y="600" font-family="Inter, Arial, sans-serif" font-size="15" font-weight="400" text-anchor="start" fill="#39445a">ROC–AUC</text><circle cx="625" cy="595" r="6" fill="#d49a00"/><text x="640" y="600" font-family="Inter, Arial, sans-serif" font-size="15" font-weight="400" text-anchor="start" fill="#39445a">F1 score</text></svg>
